<svg id="f0bc3bcc-9512-4739-939d-57a293810eec" data-name="Layer 1" xmlns="http://www.w3.org/2000/svg" viewBox="0 0 192.86 68.35"><defs><style>.ba063f05-3929-4910-bd17-56de8c0e0b7f{fill:#231f20;}.bda0c2e7-c50b-4d82-a3af-e512dfa4438f{fill:#ed145b;}</style></defs><g id="ab6489f7-9e5f-40f2-a9b6-8f38a1845bee" data-name="Layer 2"><g id="aa1c23ad-7f28-4b8f-80cf-0164685c1ee5" data-name="brand"><g id="a869356e-6745-452e-9849-1b91eeb99fa7" data-name="logo--color-black--without text"><path class="ba063f05-3929-4910-bd17-56de8c0e0b7f" d="M40.6,35.6c0,5.43-6,4.61-6,4.61H10.81c-3.72,0-4.57-2.93-4.57-5.6V30.66L0,35.62V37c0,6.77,3.38,9.22,10.93,9.22H37.2c5.08,0,9.61-3.47,9.61-8.44v-13l-6.21,6Z" transform="translate(0 0)"/><polygon class="ba063f05-3929-4910-bd17-56de8c0e0b7f" points="49.65 46.24 55.97 46.24 55.97 17.13 49.65 23.07 49.65 46.24"/><path class="ba063f05-3929-4910-bd17-56de8c0e0b7f" d="M63.07,42.63c0,4-2.18,6.2-6.34,6.2l4.07,6.11c2.31,0,8.62-1.65,8.62-12.84V24.3l-6.35,6.36Z" transform="translate(0 0)"/><path class="ba063f05-3929-4910-bd17-56de8c0e0b7f" d="M79.67,46.25H90.05a7.57,7.57,0,0,0,6.24-2.76,9,9,0,0,0,1.94-6V25.79L91.9,31.65v4.12q0,4.42-3.2,4.43H78.3s.07-3,.07-4.7V16.66L72,22.61V38.79Q72,46.25,79.67,46.25Z" transform="translate(0 0)"/><polygon class="ba063f05-3929-4910-bd17-56de8c0e0b7f" points="100.83 46.24 107.16 46.24 107.16 16.8 100.83 22.4 100.83 46.24"/><path class="ba063f05-3929-4910-bd17-56de8c0e0b7f" d="M103.75,8.31c-9.37,0-11.85,6.31-11.85,8.62l6.3,4c0-4.16,1-6.24,5-6.24h6.21l6.36-6.35Z" transform="translate(0 0)"/><polygon class="ba063f05-3929-4910-bd17-56de8c0e0b7f" points="21.43 24.31 6.19 24.31 6.19 30.64 27.38 30.64 21.43 24.31"/><path class="ba063f05-3929-4910-bd17-56de8c0e0b7f" d="M91.39,56.79l5.31-5c-.06-.08-.1-.16-.16-.23A7.57,7.57,0,0,0,90.3,48.8H72.9l6.43,6H88.2A3.89,3.89,0,0,1,91.39,56.79Z" transform="translate(0 0)"/><path class="ba063f05-3929-4910-bd17-56de8c0e0b7f" d="M83.94,55.81h4a3.37,3.37,0,0,1,2.69,1.65L88.2,59.91Z" transform="translate(0 0)"/><path class="ba063f05-3929-4910-bd17-56de8c0e0b7f" d="M154,2,147.74.36A10.58,10.58,0,0,0,134.8,7.87l-1.58,5.93A32.37,32.37,0,0,1,154,2Z" transform="translate(0 0)"/><path class="ba063f05-3929-4910-bd17-56de8c0e0b7f" d="M126.44,39.33l-1.54,5.8a10.58,10.58,0,0,0,7.51,12.94l6,1.6A32.42,32.42,0,0,1,126.44,39.33Z" transform="translate(0 0)"/><path class="ba063f05-3929-4910-bd17-56de8c0e0b7f" d="M185,10.25l-6.74-1.79a32.37,32.37,0,0,1,12.4,21.7l1.85-7A10.58,10.58,0,0,0,185,10.25Z" transform="translate(0 0)"/><path class="ba063f05-3929-4910-bd17-56de8c0e0b7f" d="M163.23,66.26,169.68,68a10.58,10.58,0,0,0,12.94-7.51l1.82-6.84A32.41,32.41,0,0,1,163.23,66.26Z" transform="translate(0 0)"/><path class="bda0c2e7-c50b-4d82-a3af-e512dfa4438f" d="M158.71,4.54a29.63,29.63,0,1,0,29.63,29.63A29.64,29.64,0,0,0,158.71,4.54ZM141.93,19.32a8.46,8.46,0,1,1,6.71,9.91,8.45,8.45,0,0,1-6.71-9.91Zm12.31,25.6A8.46,8.46,0,1,1,147.53,35a8.46,8.46,0,0,1,6.71,9.92v0Zm3.59-6.85a3.76,3.76,0,1,1,4.41-3,3.77,3.77,0,0,1-4.41,3ZM175.48,49a8.46,8.46,0,1,1-6.71-9.91A8.45,8.45,0,0,1,175.48,49Zm-5.6-15.68a8.46,8.46,0,1,1,9.91-6.71,8.45,8.45,0,0,1-9.91,6.71h0Z" transform="translate(0 0)"/></g></g></g></svg>