<svg id="e22b1779-6229-4116-88b0-62a57a7d0694" data-name="Layer 1" xmlns="http://www.w3.org/2000/svg" viewBox="0 0 75 75"><defs><style>.e6be81bb-258d-4f08-bc61-b4ac5cebe3a5{fill:#fff;}.ef0e8d03-3d49-4d7c-8e2e-8d8c3da0d7ae{fill:#231f20;}.b0ccb1f0-5e40-4af7-a5f2-a94fd08bb6d9{fill:#ed145b;}</style></defs><rect class="e6be81bb-258d-4f08-bc61-b4ac5cebe3a5" width="75" height="75" rx="8"/><g id="fc551183-e948-4cf2-816d-7425c1485be0" data-name="Layer 2"><g id="a39c429e-b017-4535-8291-58e01bed237e" data-name="brand"><g id="b453eacb-687b-4f42-b58c-004535e489fe" data-name="icon--color-black"><path class="ef0e8d03-3d49-4d7c-8e2e-8d8c3da0d7ae" d="M32.82,5.33,26.53,3.69a10.58,10.58,0,0,0-12.94,7.5h0L12,17.13A32.47,32.47,0,0,1,32.82,5.33Z"/><path class="ef0e8d03-3d49-4d7c-8e2e-8d8c3da0d7ae" d="M5.23,42.67l-1.54,5.8a10.6,10.6,0,0,0,7.51,13l6,1.59A32.42,32.42,0,0,1,5.23,42.67Z"/><path class="ef0e8d03-3d49-4d7c-8e2e-8d8c3da0d7ae" d="M63.79,13.58l-6.73-1.79a32.39,32.39,0,0,1,12.4,21.7l1.85-7A10.58,10.58,0,0,0,63.79,13.58Z"/><path class="ef0e8d03-3d49-4d7c-8e2e-8d8c3da0d7ae" d="M42,69.6l6.45,1.73a10.57,10.57,0,0,0,12.94-7.51L63.23,57A32.43,32.43,0,0,1,42,69.6Z"/><path class="b0ccb1f0-5e40-4af7-a5f2-a94fd08bb6d9" d="M37.5,7.87A29.63,29.63,0,1,0,67.13,37.51h0A29.64,29.64,0,0,0,37.5,7.87ZM20.72,22.65a8.46,8.46,0,1,1,6.71,9.91,8.47,8.47,0,0,1-6.71-9.91ZM33,48.25a8.45,8.45,0,1,1-6.7-9.92A8.46,8.46,0,0,1,33,48.25Zm3.6-6.85a3.76,3.76,0,1,1,4.4-3,3.75,3.75,0,0,1-4.4,3ZM54.27,52.33a8.46,8.46,0,1,1-6.71-9.91,8.46,8.46,0,0,1,6.71,9.91Zm-5.6-15.68a8.46,8.46,0,1,1,9.91-6.71,8.46,8.46,0,0,1-9.91,6.71h0Z"/></g></g></g></svg>